<svg xmlns="http://www.w3.org/2000/svg" xmlns:xlink="http://www.w3.org/1999/xlink" contentStyleType="text/css" data-diagram-type="CLASS" height="701px" preserveAspectRatio="none" style="width:690px;height:701px;background:#FFFFFF;" version="1.1" viewBox="0 0 690 701" width="690px" zoomAndPan="magnify"><defs/><g><!--class library--><g id="elem_library"><rect codeLine="1" fill="#F1F1F1" height="113.1875" id="library" rx="2.5" ry="2.5" style="stroke:#181818;stroke-width:0.5;" width="210.6182" x="16.52" y="23.3"/><ellipse cx="95.0581" cy="39.3" fill="#ADD1B2" rx="11" ry="11" style="stroke:#181818;stroke-width:1;"/><path d="M99.1675,45.3 L91.4487,45.3 L91.4487,32.9094 L99.1675,32.9094 L99.1675,35.0656 L93.9018,35.0656 L93.9018,37.7375 L98.6675,37.7375 L98.6675,39.8938 L93.9018,39.8938 L93.9018,43.1438 L99.1675,43.1438 L99.1675,45.3 Z " fill="#000000"/><text fill="#000000" font-family="sans-serif" font-size="14" lengthAdjust="spacing" textLength="45.042" x="115.5581" y="44.1467">library</text><line style="stroke:#181818;stroke-width:0.5;" x1="17.52" x2="226.1382" y1="55.3" y2="55.3"/><text fill="#000000" font-family="sans-serif" font-size="14" lengthAdjust="spacing" textLength="127.1758" x="22.52" y="72.2951">PK id uuid not null</text><text fill="#000000" font-family="sans-serif" font-size="14" lengthAdjust="spacing" textLength="141.6953" x="22.52" y="88.592">name string not null</text><text fill="#000000" font-family="sans-serif" font-size="14" lengthAdjust="spacing" textLength="190.9551" x="22.52" y="104.8889">created timestamp not null</text><text fill="#000000" font-family="sans-serif" font-size="14" lengthAdjust="spacing" textLength="198.6182" x="22.52" y="121.1857">modified timestamp not null</text><line style="stroke:#181818;stroke-width:0.5;" x1="17.52" x2="226.1382" y1="128.4875" y2="128.4875"/></g><!--class library_path--><g id="elem_library_path"><rect codeLine="8" fill="#F1F1F1" height="129.4844" id="library_path" rx="2.5" ry="2.5" style="stroke:#181818;stroke-width:0.5;" width="210.6182" x="16.52" y="212.78"/><ellipse cx="75.644" cy="228.78" fill="#ADD1B2" rx="11" ry="11" style="stroke:#181818;stroke-width:1;"/><path d="M79.7534,234.78 L72.0346,234.78 L72.0346,222.3894 L79.7534,222.3894 L79.7534,224.5456 L74.4878,224.5456 L74.4878,227.2175 L79.2534,227.2175 L79.2534,229.3738 L74.4878,229.3738 L74.4878,232.6238 L79.7534,232.6238 L79.7534,234.78 Z " fill="#000000"/><text fill="#000000" font-family="sans-serif" font-size="14" lengthAdjust="spacing" textLength="83.8701" x="96.144" y="233.6267">library_path</text><line style="stroke:#181818;stroke-width:0.5;" x1="17.52" x2="226.1382" y1="244.78" y2="244.78"/><text fill="#000000" font-family="sans-serif" font-size="14" lengthAdjust="spacing" textLength="127.1758" x="22.52" y="261.7751">PK id uuid not null</text><text fill="#000000" font-family="sans-serif" font-size="14" lengthAdjust="spacing" textLength="178.8281" x="22.52" y="278.072">FK library_id uuid not null</text><text fill="#000000" font-family="sans-serif" font-size="14" lengthAdjust="spacing" textLength="133.8203" x="22.52" y="294.3689">path string not null</text><text fill="#000000" font-family="sans-serif" font-size="14" lengthAdjust="spacing" textLength="190.9551" x="22.52" y="310.6657">created timestamp not null</text><text fill="#000000" font-family="sans-serif" font-size="14" lengthAdjust="spacing" textLength="198.6182" x="22.52" y="326.9626">modified timestamp not null</text><line style="stroke:#181818;stroke-width:0.5;" x1="17.52" x2="226.1382" y1="334.2644" y2="334.2644"/></g><!--class video--><g id="elem_video"><rect codeLine="17" fill="#F1F1F1" height="292.4531" id="video" rx="2.5" ry="2.5" style="stroke:#181818;stroke-width:0.5;" width="229.6563" x="7" y="402.27"/><ellipse cx="98.458" cy="418.27" fill="#ADD1B2" rx="11" ry="11" style="stroke:#181818;stroke-width:1;"/><path d="M102.5674,424.27 L94.8486,424.27 L94.8486,411.8794 L102.5674,411.8794 L102.5674,414.0356 L97.3018,414.0356 L97.3018,416.7075 L102.0674,416.7075 L102.0674,418.8638 L97.3018,418.8638 L97.3018,422.1138 L102.5674,422.1138 L102.5674,424.27 Z " fill="#000000"/><text fill="#000000" font-family="sans-serif" font-size="14" lengthAdjust="spacing" textLength="38.2402" x="118.958" y="423.1167">video</text><line style="stroke:#181818;stroke-width:0.5;" x1="8" x2="235.6563" y1="434.27" y2="434.27"/><text fill="#000000" font-family="sans-serif" font-size="14" lengthAdjust="spacing" textLength="127.1758" x="13" y="451.2651">PK id uuid not null</text><text fill="#000000" font-family="sans-serif" font-size="14" lengthAdjust="spacing" textLength="217.6563" x="13" y="467.562">FK library_path_id uuid not null</text><text fill="#000000" font-family="sans-serif" font-size="14" lengthAdjust="spacing" textLength="191.3857" x="13" y="483.8589">relative path string not null</text><text fill="#000000" font-family="sans-serif" font-size="14" lengthAdjust="spacing" textLength="129.3633" x="13" y="500.1557">title string not null</text><text fill="#000000" font-family="sans-serif" font-size="14" lengthAdjust="spacing" textLength="170.0166" x="13" y="516.4526">file_name string not null</text><text fill="#000000" font-family="sans-serif" font-size="14" lengthAdjust="spacing" textLength="124.6807" x="13" y="532.7495">height int not null</text><text fill="#000000" font-family="sans-serif" font-size="14" lengthAdjust="spacing" textLength="118.6445" x="13" y="549.0464">width int not null</text><text fill="#000000" font-family="sans-serif" font-size="14" lengthAdjust="spacing" textLength="156.8506" x="13" y="565.3432">runtime bigint not null</text><text fill="#000000" font-family="sans-serif" font-size="14" lengthAdjust="spacing" textLength="128.8643" x="13" y="581.6401">size bigint not null</text><text fill="#000000" font-family="sans-serif" font-size="14" lengthAdjust="spacing" textLength="115.4316" x="13" y="597.937">checksum string</text><text fill="#000000" font-family="sans-serif" font-size="14" lengthAdjust="spacing" textLength="181.1729" x="13" y="614.2339">added timestamp not null</text><text fill="#000000" font-family="sans-serif" font-size="14" lengthAdjust="spacing" textLength="144.7031" x="13" y="630.5307">deleted bool not null</text><text fill="#000000" font-family="sans-serif" font-size="14" lengthAdjust="spacing" textLength="132.5762" x="13" y="646.8276">exists bool not null</text><text fill="#000000" font-family="sans-serif" font-size="14" lengthAdjust="spacing" textLength="190.9551" x="13" y="663.1245">created timestamp not null</text><text fill="#000000" font-family="sans-serif" font-size="14" lengthAdjust="spacing" textLength="198.6182" x="13" y="679.4214">modified timestamp not null</text><line style="stroke:#181818;stroke-width:0.5;" x1="8" x2="235.6563" y1="686.7231" y2="686.7231"/></g><!--class job_type_enum--><g id="elem_job_type_enum"><rect codeLine="36" fill="#F1F1F1" height="96.8906" id="job_type_enum" rx="2.5" ry="2.5" style="stroke:#181818;stroke-width:0.5;" width="176.083" x="321.79" y="229.08"/><ellipse cx="353.6514" cy="245.08" fill="#EB937F" rx="11" ry="11" style="stroke:#181818;stroke-width:1;"/><path d="M357.7608,251.08 L350.042,251.08 L350.042,238.6894 L357.7608,238.6894 L357.7608,240.8456 L352.4951,240.8456 L352.4951,243.5175 L357.2608,243.5175 L357.2608,245.6738 L352.4951,245.6738 L352.4951,248.9238 L357.7608,248.9238 L357.7608,251.08 Z " fill="#000000"/><text fill="#000000" font-family="sans-serif" font-size="14" lengthAdjust="spacing" textLength="106.6133" x="371.3983" y="249.9267">job_type_enum</text><line style="stroke:#181818;stroke-width:0.5;" x1="322.79" x2="496.873" y1="261.08" y2="261.08"/><text fill="#000000" font-family="sans-serif" font-size="14" lengthAdjust="spacing" textLength="164.083" x="327.79" y="278.0751">update_existing_videos</text><text fill="#000000" font-family="sans-serif" font-size="14" lengthAdjust="spacing" textLength="71.2715" x="327.79" y="294.372">scan_path</text><text fill="#000000" font-family="sans-serif" font-size="14" lengthAdjust="spacing" textLength="141.2168" x="327.79" y="310.6689">generate_checksum</text><line style="stroke:#181818;stroke-width:0.5;" x1="322.79" x2="496.873" y1="317.9706" y2="317.9706"/></g><!--class job_status_enum--><g id="elem_job_status_enum"><rect codeLine="42" fill="#F1F1F1" height="129.4844" id="job_status_enum" rx="2.5" ry="2.5" style="stroke:#181818;stroke-width:0.5;" width="150.3574" x="532.65" y="212.78"/><ellipse cx="547.65" cy="228.78" fill="#EB937F" rx="11" ry="11" style="stroke:#181818;stroke-width:1;"/><path d="M551.7594,234.78 L544.0406,234.78 L544.0406,222.3894 L551.7594,222.3894 L551.7594,224.5456 L546.4938,224.5456 L546.4938,227.2175 L551.2594,227.2175 L551.2594,229.3738 L546.4938,229.3738 L546.4938,232.6238 L551.7594,232.6238 L551.7594,234.78 Z " fill="#000000"/><text fill="#000000" font-family="sans-serif" font-size="14" lengthAdjust="spacing" textLength="118.3574" x="561.65" y="233.6267">job_status_enum</text><line style="stroke:#181818;stroke-width:0.5;" x1="533.65" x2="682.0074" y1="244.78" y2="244.78"/><text fill="#000000" font-family="sans-serif" font-size="14" lengthAdjust="spacing" textLength="80.0352" x="538.65" y="261.7751">not_started</text><text fill="#000000" font-family="sans-serif" font-size="14" lengthAdjust="spacing" textLength="80.8145" x="538.65" y="278.072">in_progress</text><text fill="#000000" font-family="sans-serif" font-size="14" lengthAdjust="spacing" textLength="38.7871" x="538.65" y="294.3689">failed</text><text fill="#000000" font-family="sans-serif" font-size="14" lengthAdjust="spacing" textLength="74.2793" x="538.65" y="310.6657">completed</text><text fill="#000000" font-family="sans-serif" font-size="14" lengthAdjust="spacing" textLength="66.7393" x="538.65" y="326.9626">cancelled</text><line style="stroke:#181818;stroke-width:0.5;" x1="533.65" x2="682.0074" y1="334.2644" y2="334.2644"/></g><!--class job--><g id="elem_job"><rect codeLine="50" fill="#F1F1F1" height="145.7813" id="job" rx="2.5" ry="2.5" style="stroke:#181818;stroke-width:0.5;" width="263.5215" x="339.07" y="7"/><ellipse cx="455.9098" cy="23" fill="#ADD1B2" rx="11" ry="11" style="stroke:#181818;stroke-width:1;"/><path d="M460.0192,29 L452.3005,29 L452.3005,16.6094 L460.0192,16.6094 L460.0192,18.7656 L454.7536,18.7656 L454.7536,21.4375 L459.5192,21.4375 L459.5192,23.5938 L454.7536,23.5938 L454.7536,26.8438 L460.0192,26.8438 L460.0192,29 Z " fill="#000000"/><text fill="#000000" font-family="sans-serif" font-size="14" lengthAdjust="spacing" textLength="21.3418" x="476.4098" y="27.8467">job</text><line style="stroke:#181818;stroke-width:0.5;" x1="340.07" x2="601.5915" y1="39" y2="39"/><text fill="#000000" font-family="sans-serif" font-size="14" lengthAdjust="spacing" textLength="127.1758" x="345.07" y="55.9951">PK id uuid not null</text><text fill="#000000" font-family="sans-serif" font-size="14" lengthAdjust="spacing" textLength="228.0332" x="345.07" y="72.292">job_type job_type_enum not null</text><text fill="#000000" font-family="sans-serif" font-size="14" lengthAdjust="spacing" textLength="251.5215" x="345.07" y="88.5889">job_status job_status_enum not null</text><text fill="#000000" font-family="sans-serif" font-size="14" lengthAdjust="spacing" textLength="64.6064" x="345.07" y="104.8857">data json</text><text fill="#000000" font-family="sans-serif" font-size="14" lengthAdjust="spacing" textLength="190.9551" x="345.07" y="121.1826">created timestamp not null</text><text fill="#000000" font-family="sans-serif" font-size="14" lengthAdjust="spacing" textLength="198.6182" x="345.07" y="137.4795">modified timestamp not null</text><line style="stroke:#181818;stroke-width:0.5;" x1="340.07" x2="601.5915" y1="144.7813" y2="144.7813"/></g><!--link library to library_path--><g id="link_library_library_path"><path codeLine="15" d="M121.83,136.95 C121.83,160.55 121.83,176.14 121.83,200.53 " fill="transparent" id="library-to-library_path" style="stroke:#181818;stroke-width:1;"/><polygon fill="#181818" points="121.83,212.53,125.83,206.53,121.83,200.53,117.83,206.53,121.83,212.53" style="stroke:#181818;stroke-width:1;"/></g><!--link library_path to video--><g id="link_library_path_video"><path codeLine="34" d="M121.83,342.61 C121.83,360.71 121.83,369.18 121.83,390.01 " fill="transparent" id="library_path-to-video" style="stroke:#181818;stroke-width:1;"/><polygon fill="#181818" points="121.83,402.01,125.83,396.01,121.83,390.01,117.83,396.01,121.83,402.01" style="stroke:#181818;stroke-width:1;"/></g><!--link job to job_type_enum--><g id="link_job_job_type_enum"><path codeLine="58" d="M448.29,153.18 C440.41,178.43 431.78,206.13 424.69,228.86 " fill="transparent" id="job-job_type_enum" style="stroke:#181818;stroke-width:1;stroke-dasharray:7.0,7.0;"/></g><!--link job to job_status_enum--><g id="link_job_job_status_enum"><path codeLine="59" d="M521.45,153.18 C535.1,172.67 549.76,193.6 563.06,212.59 " fill="transparent" id="job-job_status_enum" style="stroke:#181818;stroke-width:1;stroke-dasharray:7.0,7.0;"/></g><!--SRC=[hPFFReCm3CRlVGgV9xMFiKilUmCKY0lkGe8IqurDU_VPq3yffTMaxeB8PsF_x2-WP-8179NHn06-Lm1lMo0BVIyF7nXyxvoethG8YIFvEfUhY8RH0bEBYKtRvS4sMDhHSlHdjSAhtaLdk7a0yBezPov4nu__5U-qalNwvGhnp7qWY-5lmFhT4dL4PvWEU0zV-hYbhU_8ON77aGQfRXZ8Swv-a9KECp7sNaU7akfP9D7NabmrMBsdlZss5SLOUs-z5XtgxiiGNAxZ9oLED_BpLaqtIFqQhL6Z17KVoeA73elnf7RrdPLEnSWXKnHZTjAfA-CdZm5gz1WrxJJpT6EF1GM1-tGfAJ2gHHb0JYHLOgWZ9gswC-AMobLekt4b-cvyXKxrouyWXHzSfzCSiu5c6HFO3MDkYs43-nJySpjNsCtc6YONi-w_]--></g></svg>